<svg width="78" height="78" viewBox="0 0 78 78" fill="none" xmlns="http://www.w3.org/2000/svg">
<g clip-path="url(#clip0_597_187)">
<path d="M38.1039 3.4531V6.14152H37.0136C36.3713 6.14152 35.8187 6.21619 35.6843 6.32075C35.5499 6.42529 35.0719 7.65002 34.6239 9.05397L33.8024 11.593L32.9511 11.6677C32.0699 11.7573 31.6815 12.0262 31.6815 12.5937C31.6815 12.7431 32.264 14.0126 32.966 15.4166L34.2355 17.9855L33.9966 20.3901C33.7128 23.2877 33.0108 28.2463 32.5329 30.7107L32.2043 32.503L30.0685 32.5776C28.1716 32.6374 27.9028 32.6822 27.7086 32.9361C27.5892 33.1004 27.4995 33.3394 27.4995 33.4887C27.4995 33.6231 28.1716 35.1466 29.008 36.8791L30.5016 40.0305L30.0386 41.7183C29.7847 42.6443 29.2022 44.6307 28.7392 46.1243L27.9028 48.8575H25.6923C24.4825 48.8575 23.3176 48.9172 23.1085 49.0069C22.3915 49.2757 22.4662 49.664 23.8254 53.0843L25.1098 56.3104L24.6767 57.4007C22.8695 61.9113 19.509 68.6622 16.3725 74.054L15.4763 75.5923H8.12799H0.764709V76.4138V77.2353H39H77.2353V76.4138V75.5923H65.0627C55.4442 75.5923 52.8752 75.5475 52.8304 75.3982C52.8005 75.3086 52.6811 74.6514 52.5466 73.9644C52.1434 71.8734 50.9635 69.6928 49.1861 67.7959C48.6932 67.2582 48.29 66.5413 47.5133 64.7341C46.5425 62.4639 44.8249 57.7144 44.8249 57.2812C44.8249 57.102 45.3775 57.0721 48.0809 57.0721H51.3518L52.2181 59.1183C54.1 63.5393 57.9832 71.4104 58.2819 71.4104C58.3417 71.4104 58.7001 71.2759 59.0735 71.1116L59.7456 70.8279L57.8936 67.1985C56.176 63.823 54.6376 60.5223 53.398 57.5501L52.8902 56.3253L54.1746 53.1142C55.5487 49.679 55.6234 49.2757 54.8915 49.0069C54.6824 48.9172 53.5175 48.8575 52.3077 48.8575H50.0972L49.7985 47.8419C48.7829 44.5262 48.0958 42.2261 47.8419 41.2553L47.5432 40.1351L49.0218 36.9389C49.8284 35.1764 50.5005 33.6082 50.5005 33.429C50.5005 33.2647 50.3959 32.9958 50.2615 32.8614C50.0225 32.5926 49.6043 32.5926 41.9722 32.6822C37.148 32.7419 33.9219 32.727 33.9219 32.6374C33.9219 32.5627 34.0563 31.801 34.2206 30.9347C34.7732 27.9476 35.8635 19.8973 35.8635 18.7024C35.8635 18.5829 36.8791 18.5381 38.9851 18.5381H42.1216L42.1962 19.1654C42.241 19.5239 42.3456 20.5096 42.4352 21.3759C42.6294 23.213 43.167 27.3203 43.2567 27.6489C43.3164 27.8281 43.5106 27.858 44.1528 27.8281C44.9743 27.7684 44.9892 27.7534 44.9145 27.38C44.7652 26.6183 44.2275 22.4811 44.0034 20.2258L43.7645 17.9556L45.0489 15.4166C45.7509 14.0126 46.3185 12.6983 46.3185 12.5041C46.3185 11.9814 45.7957 11.6677 44.9444 11.6677H44.2424L43.406 9.05397C42.8235 7.23182 42.48 6.39542 42.2858 6.29087C42.1365 6.21619 41.5391 6.14152 40.9566 6.14152H39.8961V3.4531V0.764679H39H38.1039V3.4531ZM41.8378 9.71114C42.1664 10.7566 42.4352 11.6677 42.4352 11.7275C42.4352 11.7723 40.8968 11.8171 39 11.8171C37.1181 11.8171 35.5648 11.7872 35.5648 11.7424C35.5648 11.593 36.6402 8.30719 36.7895 8.03835C36.909 7.81431 37.1778 7.78444 39.0747 7.78444H41.2254L41.8378 9.71114ZM36.3116 41.2702C36.3116 42.3157 35.5648 47.8718 35.3258 48.738C35.2511 48.977 34.9823 49.0069 32.4432 49.0069H29.6204L30.2626 47.0204C30.6062 45.9451 31.1438 44.093 31.4724 42.9131L32.0549 40.7922H34.1758H36.3116V41.2702ZM46.7964 43.7346C47.2744 45.3626 47.812 47.2146 48.0211 47.8419L48.3796 49.0069H45.5717H42.7489L42.5995 48.2153C42.2709 46.6172 41.6884 42.1066 41.6884 41.1955V40.7922H43.8242H45.96L46.7964 43.7346ZM40.1052 42.2709C40.165 43.0027 40.3741 44.7353 40.5682 46.1093C40.7773 47.4984 40.9416 48.6783 40.9416 48.738C40.9416 48.8127 40.0754 48.8575 39 48.8575C37.9396 48.8575 37.0584 48.8127 37.0584 48.738C37.0584 48.6783 37.1928 47.8568 37.3421 46.9159C37.5064 45.9749 37.7006 44.3171 37.8051 43.2566C37.9097 42.1813 38.0142 41.2254 38.0441 41.1208C38.074 41.0013 38.4175 40.9416 39.0448 40.9416H40.0007L40.1052 42.2709ZM33.1751 57.326C33.1751 57.6695 32.0997 60.806 31.2335 62.9717C30.0386 65.9887 29.3814 67.2582 28.6347 68.0498C27.7983 68.931 26.9469 70.1408 26.4092 71.2162C25.9164 72.1721 25.2592 74.3975 25.2592 75.0845V75.5923H21.3759H17.4777L17.6569 75.2488C17.7615 75.0696 18.344 74.054 18.9563 72.9786C21.2564 68.9908 24.4527 62.4788 26.1553 58.2968L26.6631 57.0721H29.9191C32.8764 57.0721 33.1751 57.102 33.1751 57.326ZM43.6301 59.193C44.1379 60.7762 45.3028 63.8977 45.8256 65.0926C45.8704 65.1971 45.4821 65.0926 44.9593 64.8387C43.0625 63.9724 41.7332 63.7185 39 63.7185C36.2817 63.7185 35.0271 63.9575 33.1004 64.8237L32.1445 65.2569L32.4582 64.4951C33.205 62.6431 33.9368 60.6119 34.4596 58.9689L35.0271 57.2215H39H42.9878L43.6301 59.193ZM42.6592 65.8095C47.1997 67.1388 50.4407 70.6337 51.1726 74.9501L51.2771 75.5923H39H26.7378L26.8274 75.0248C27.6489 70.1408 31.5471 66.4069 36.8791 65.4361C37.2675 65.3614 38.4175 65.3315 39.4481 65.3614C40.9118 65.4062 41.5988 65.4958 42.6592 65.8095Z" fill="#4E4E4E"/>
<path d="M7.48575 1.15301C6.26102 1.40691 4.63304 2.21344 3.72196 3.00503C2.82582 3.78168 1.6459 5.54409 1.21277 6.75388C0.958863 7.47079 0.854314 8.17277 0.809507 9.50204C0.734828 11.145 0.7647 11.3839 1.12316 12.4593C2.25827 15.8497 4.63304 18.8667 9.47219 23.0636L11.3989 24.7364L10.5625 24.7812L9.7261 24.826V25.7072V26.5884L10.906 26.6332L12.1009 26.6781L10.4281 28.9184C8.75528 31.1588 8.75528 31.1588 8.75528 32.0101C8.75528 33.5933 9.59167 34.2206 11.7125 34.2206H13.0119V40.7176V47.2146H13.9081H14.8042V40.7176V34.2206H16.0738C17.5524 34.2206 18.1498 34.0115 18.7323 33.3394C19.0459 32.951 19.1356 32.6971 19.1356 32.1146C19.1356 31.1886 19.1356 31.1886 17.3283 28.769C16.5218 27.6787 15.8497 26.7378 15.8497 26.693C15.8497 26.6482 16.3874 26.6034 17.0446 26.6034H18.2544L18.2096 25.7371L18.1647 24.8858L17.3283 24.8111L16.477 24.7364L18.6427 22.8695C23.4818 18.7024 25.8566 15.6555 26.7079 12.5639C27.0963 11.145 27.0813 8.02341 26.6781 6.81363C25.5131 3.244 21.2863 0.451031 17.9407 1.04846C16.6861 1.2725 15.6107 1.79524 14.6698 2.64658L13.923 3.31868L13.2808 2.70632C12.5041 1.95953 11.13 1.2725 10.0397 1.06339C9.03905 0.869232 8.69554 0.884167 7.48575 1.15301ZM10.8015 3.12452C11.6528 3.54271 12.8028 4.52847 13.0866 5.11096C13.3555 5.61877 13.8185 5.88761 14.2068 5.76813C14.3561 5.72332 14.6549 5.39474 14.864 5.03628C15.7004 3.61739 17.2387 2.70632 18.8518 2.70632C22.4662 2.70632 25.4235 5.87268 25.4384 9.80075C25.4533 13.3853 22.9143 16.9251 16.0588 22.8247L13.9529 24.6468L11.5034 22.5259C8.44163 19.8973 6.15647 17.6121 4.94668 15.9841C3.946 14.6399 2.82582 12.4742 2.57191 11.369C2.0641 9.14359 2.78101 6.54478 4.39407 4.84212C5.23046 3.94598 5.79802 3.55765 7.02274 3.04984C8.12798 2.58683 9.75597 2.6167 10.8015 3.12452ZM15.7601 29.5308C16.7459 30.8302 17.4926 31.9653 17.4628 32.0997C17.418 32.3237 17.0595 32.3536 13.938 32.3984C10.9807 32.4283 10.4579 32.3984 10.3833 32.2192C10.2937 32.0101 13.699 27.2008 13.923 27.2008C13.9828 27.2008 14.8042 28.2463 15.7601 29.5308Z" fill="#4E4E4E"/>
<path d="M7.99357 6.20126C7.30653 6.49998 6.47013 7.3065 6.09674 7.99354C5.85777 8.45655 5.78309 8.87475 5.76816 9.74101C5.76816 10.7716 5.8279 10.9807 6.39546 12.1307C7.00782 13.3704 8.15786 14.8789 9.62156 16.4023C10.0398 16.8355 10.443 17.1939 10.5028 17.1939C10.5625 17.1939 10.8463 16.9549 11.1151 16.6562L11.6229 16.1036L10.5774 15.0432C9.2183 13.6392 8.29228 12.3996 7.73967 11.2495C7.36627 10.4579 7.30653 10.1741 7.36627 9.47217C7.42602 8.74033 7.51563 8.5611 7.97864 8.12796C8.27735 7.85912 8.66568 7.63509 8.82997 7.63509C9.11375 7.63509 9.12868 7.57534 9.054 7.06753C8.8449 5.87268 8.81503 5.84281 7.99357 6.20126Z" fill="#4E4E4E"/>
<path d="M12.5639 18.0303C12.31 18.329 12.1158 18.6128 12.1457 18.6725C12.1755 18.7323 12.4593 19.031 12.8028 19.3297L13.4152 19.8823L13.9081 19.27L14.386 18.6576L13.9678 18.2095C13.236 17.4478 13.1016 17.4329 12.5639 18.0303Z" fill="#4E4E4E"/>
<path d="M58.0131 1.07833C53.861 1.76537 50.9037 5.48435 50.9187 9.95012C50.9187 12.1158 51.9044 14.625 53.6668 16.9699C54.7721 18.4186 57.2962 21.0025 59.6112 23.0338L61.5678 24.7364L60.7314 24.7812L59.9099 24.826V25.7072V26.5884L61.0898 26.6332L62.2847 26.6781L60.6119 28.9035C59.0885 30.9497 58.954 31.1886 58.8943 31.8906C58.8495 32.503 58.9092 32.7569 59.193 33.1751C59.7307 33.9816 60.358 34.2206 61.8964 34.2206H63.1958V40.7176V47.2146H64.0919H64.988V40.7176V34.2206H66.2576C68.3187 34.2206 69.17 33.6679 69.2895 32.2341C69.3642 31.2484 69.3642 31.2334 67.4226 28.6496L65.8692 26.6034H67.079H68.2739V25.7072V24.826L67.4524 24.7812L66.631 24.7364L68.3038 23.3026C75.204 17.4179 77.3996 13.923 77.2054 9.15852C77.1307 7.39612 76.8918 6.52985 76.1151 5.24538C74.3527 2.34786 70.8727 0.525715 68.0349 1.04846C66.855 1.2725 65.6751 1.86992 64.8088 2.67645L64.0919 3.34855L63.3451 2.64658C62.4938 1.84005 61.3736 1.28743 60.2086 1.0634C59.3274 0.899105 59.1034 0.899105 58.0131 1.07833ZM61.0301 3.15439C61.7321 3.49791 62.912 4.55834 63.5841 5.46942C64.0023 6.05191 64.4952 5.90255 65.0328 5.03628C65.9589 3.57259 67.4375 2.70632 69.0356 2.70632C72.6202 2.70632 75.5924 5.88762 75.6222 9.74102C75.6372 12.6087 73.9196 15.5958 70.1259 19.2849C68.1544 21.2116 64.3458 24.5124 64.1068 24.5124C64.0172 24.5124 62.6133 23.3325 60.9703 21.9136C56.2208 17.7316 54.2941 15.4315 53.1142 12.4892C52.0687 9.87543 52.6363 6.88831 54.5779 4.84212C55.3993 3.97585 55.9968 3.55765 57.1468 3.04984C58.1923 2.58683 59.9697 2.63164 61.0301 3.15439ZM65.9589 29.5308C66.9147 30.8152 67.6765 31.9802 67.6466 32.1146C67.6018 32.3237 67.1836 32.3536 64.1218 32.3984C61.1496 32.4283 60.6418 32.3984 60.5671 32.2042C60.4775 31.9951 63.8679 27.2008 64.1068 27.2008C64.1666 27.2008 65.003 28.2463 65.9589 29.5308Z" fill="#4E4E4E"/>
<path d="M58.1177 6.23113C57.4455 6.52985 56.6838 7.26169 56.2806 8.00848C56.0416 8.45655 55.9669 8.87474 55.952 9.72608C55.952 10.682 56.0267 10.9956 56.4449 11.8768C57.0722 13.2061 57.9534 14.4308 59.432 15.9991L60.6268 17.2686L61.1944 16.716L61.747 16.1633L60.5671 14.849C58.9242 13.0418 58.491 12.4593 57.9683 11.3541C57.3709 10.0696 57.3559 9.05397 57.9235 8.36693C58.1475 8.11303 58.5358 7.79938 58.8047 7.69483C59.2677 7.50066 59.2677 7.48573 59.1482 6.85843C59.0885 6.49997 59.0287 6.17139 59.0138 6.09671C59.0138 5.93242 58.7001 5.97723 58.1177 6.23113Z" fill="#4E4E4E"/>
<path d="M62.7477 18.0154C62.4789 18.2842 62.2847 18.568 62.3146 18.6427C62.3444 18.7173 62.6432 19.0161 62.9717 19.3148L63.5692 19.8524L64.077 19.255L64.5699 18.6725L64.1517 18.2095C63.4347 17.4627 63.3003 17.4478 62.7477 18.0154Z" fill="#4E4E4E"/>
<path d="M4.05057 57.9683V58.8644H7.18706H10.3235V57.9683V57.0721H7.18706H4.05057V57.9683Z" fill="#4E4E4E"/>
<path d="M67.8258 57.9683V58.8644H70.9623H74.0988V57.9683V57.0721H70.9623H67.8258V57.9683Z" fill="#4E4E4E"/>
<path d="M0.764709 64.54V65.4361H5.54412H10.3235V64.54V63.6438H5.54412H0.764709V64.54Z" fill="#4E4E4E"/>
<path d="M13.3107 64.54V65.4361H14.6399H15.9692L16.029 64.54L16.0738 63.6438H14.6997H13.3107V64.54Z" fill="#4E4E4E"/>
<path d="M62.0009 64.5399V65.451L63.3899 65.4062L64.764 65.3614L64.8088 64.4951L64.8536 63.6438H63.4198H62.0009V64.5399Z" fill="#4E4E4E"/>
<path d="M67.8258 64.54V65.4361H72.5306H77.2353V64.54V63.6438H72.5306H67.8258V64.54Z" fill="#4E4E4E"/>
</g>
<defs>
<clipPath id="clip0_597_187">
<rect width="76.4706" height="76.4706" fill="white" transform="translate(0.764709 0.764679)"/>
</clipPath>
</defs>
</svg>
