<svg width="65" height="66" viewBox="0 0 65 66" fill="none" xmlns="http://www.w3.org/2000/svg"><g clip-path="url(#a)"><path d="M59.712 17.294c11.665 12.62 1.874 14.821-8.594 25.617-10.467 10.794-17.774 17.103-29.312 13.475C10.27 52.76-7.26 36.138 3.206 25.344c10.468-10.795 44.841-20.668 56.506-8.05" fill="#F6ECBB"/><path d="m33.965 10.737 4.428 9.388a3.17 3.17 0 0 0 2.373 1.799l.01.003 9.882 1.501a1.009 1.009 0 0 1 .51 1.696l-.004.003-7.169 7.31-.005.005a3.31 3.31 0 0 0-.886 2.849v.001l1.693 10.319.002.014.002.013a.96.96 0 0 1-.894 1.134.8.8 0 0 1-.372-.103l-.008-.005-8.858-4.872h-.002a3.08 3.08 0 0 0-2.982 0l-8.858 4.872-.008.005a.8.8 0 0 1-.374.103.956.956 0 0 1-.893-1.134l.004-.014.001-.013 1.693-10.319v-.001a3.31 3.31 0 0 0-.886-2.85l-.007-.005-7.169-7.31-.001-.002a1.008 1.008 0 0 1 .51-1.696l9.88-1.503h.011a3.17 3.17 0 0 0 2.373-1.8l4.428-9.386.005-.011.004-.011a.86.86 0 0 1 .78-.508.86.86 0 0 1 .778.508l.004.01z" fill="#fff" stroke="#2A2D32" stroke-width="2"/></g><defs><clipPath id="a"><path fill="#fff" d="M0 .73h65v65H0z"/></clipPath></defs></svg>