<svg width="30" height="30.462" viewBox="0 0 30 30.462" fill="none" xmlns="http://www.w3.org/2000/svg"><g clip-path="url(#a)"><path d="M27.559 8.07c5.384 5.824 0.865 6.84 -3.966 11.822S15.39 27.786 10.064 26.112C4.74 24.438 -3.351 16.767 1.48 11.784c4.831 -4.982 20.696 -9.54 26.08 -3.715" fill="#DEECED"/><path d="M20.625 4.712H8.125a1.251 1.251 0 0 0 -1.25 1.25v12.5a1.251 1.251 0 0 0 1.25 1.25h12.5a1.251 1.251 0 0 0 1.25 -1.25V5.962a1.251 1.251 0 0 0 -1.25 -1.25" fill="#fff"/><path fill-rule="evenodd" clip-rule="evenodd" d="M10.625 2.837a0.625 0.625 0 0 1 0.625 0.625v0.625h6.25V3.462a0.625 0.625 0 1 1 1.25 0v0.625h1.719a2.031 2.031 0 0 1 2.031 2.031v12.188a2.031 2.031 0 0 1 -2.031 2.031H8.281a2.031 2.031 0 0 1 -2.031 -2.031V6.118a2.031 2.031 0 0 1 2.031 -2.031h1.719V3.462a0.625 0.625 0 0 1 0.625 -0.625m6.876 2.5v0.625a0.625 0.625 0 1 0 1.25 0v-0.625h1.719c0.431 0 0.781 0.35 0.781 0.781v1.719H7.5v-1.719c0 -0.431 0.35 -0.781 0.781 -0.781h1.719v0.625a0.625 0.625 0 1 0 1.25 0v-0.625zM7.5 9.087v9.219c0 0.431 0.35 0.781 0.781 0.781h12.187c0.431 0 0.781 -0.35 0.781 -0.781V9.087z" fill="#2A2D32"/></g><defs><clipPath id="a"><path fill="#fff" d="M0 0.337h30v30H0z"/></clipPath></defs></svg>