<svg width="65" height="66" viewBox="0 0 65 66" fill="none" xmlns="http://www.w3.org/2000/svg"><g clip-path="url(#a)"><path d="M59.712 16.473c11.665 12.619 1.874 14.82-8.594 25.616S33.344 59.192 21.806 55.565-7.26 35.318 3.206 24.523c10.468-10.796 44.841-20.67 56.506-8.05" fill="#F6C5CD"/><path fill-rule="evenodd" clip-rule="evenodd" d="M24.198 14.277c-1.26-.058-2.451.494-3.58 1.587-1.684 1.628-2.675 3.449-2.675 6.373 0 4.206 2.466 8.938 7.574 14.233 5.246 5.268 9.912 7.593 14.102 7.593h.035a9.33 9.33 0 0 0 6.523-2.708l.022-.022.021-.02a4.61 4.61 0 0 0 1.513-3.55 2.62 2.62 0 0 0-1.693-1.84l-.058-.02-4.746-2.138a1.62 1.62 0 0 0-1.754.362l-.016.017-1.262 1.189c-1.201 1.132-3.074 1.495-4.618.569a21.6 21.6 0 0 1-4.316-3.412 24.6 24.6 0 0 1-3.24-4.051c-1.016-1.59-.646-3.575.586-4.812l1.228-1.235.033-.028c.47-.415.604-1.093.329-1.656l-.01-.02-2.132-4.78-.009-.021a2.7 2.7 0 0 0-1.857-1.61m-5.465-.36c1.523-1.472 3.46-2.496 5.748-2.336l.093.005.09.02a5.4 5.4 0 0 1 3.893 3.244l2.093 4.693a4.1 4.1 0 0 1-.945 4.818l-1.17 1.177c-.437.439-.48 1.039-.223 1.442.831 1.3 1.798 2.51 2.885 3.61l.007.005a18.8 18.8 0 0 0 3.777 2.984c.379.228.936.187 1.366-.218l1.23-1.16a4.33 4.33 0 0 1 4.71-.932l.02.008 4.677 2.107a5.33 5.33 0 0 1 3.42 3.916l.022.105.007.105a7.32 7.32 0 0 1-2.37 5.788 12.04 12.04 0 0 1-8.398 3.473h-.047c-5.232 0-10.555-2.898-16.028-8.398l-.009-.007-.006-.008c-5.286-5.476-8.34-10.862-8.34-16.121 0-3.732 1.345-6.238 3.499-8.32" fill="#000"/><path fill-rule="evenodd" clip-rule="evenodd" d="M24.196 14.276c-1.26-.057-2.45.494-3.579 1.587-1.683 1.627-2.674 3.45-2.674 6.372 0 4.206 2.466 8.94 7.574 14.234 5.244 5.269 9.912 7.594 14.102 7.594h.035a9.33 9.33 0 0 0 6.523-2.708l.022-.022.021-.02a4.61 4.61 0 0 0 1.512-3.55 2.63 2.63 0 0 0-1.69-1.84l-.059-.02-4.747-2.14a1.62 1.62 0 0 0-1.753.363l-.016.017-1.262 1.188c-1.201 1.133-3.074 1.495-4.618.57a21.6 21.6 0 0 1-4.317-3.41 24.6 24.6 0 0 1-3.239-4.054c-1.015-1.59-.646-3.575.585-4.811l1.228-1.234.034-.03c.47-.414.604-1.09.33-1.654l-.011-.022-2.132-4.777-.008-.023a2.7 2.7 0 0 0-1.86-1.61" fill="#fff"/></g><defs><clipPath id="a"><path fill="#fff" d="M0 .73h65v65H0z"/></clipPath></defs></svg>