<svg width="65" height="49" viewBox="0 0 65 49" fill="none" xmlns="http://www.w3.org/2000/svg"><g clip-path="url(#a)"><path d="M59.323 9.226c11.426 12.424 1.835 14.593-8.419 25.221-10.254 10.63-17.412 16.84-28.714 13.27C10.888 44.143-6.284 27.78 3.97 17.15S47.896-3.2 59.322 9.225" fill="#BFF2F5"/><path fill-rule="evenodd" clip-rule="evenodd" d="M35.319 25.663c6.866-1.405 11.939-6.364 11.939-12.267C47.258 6.4 40.13.73 31.339.73c-8.79 0-15.918 5.67-15.918 12.666 0 5.515 4.43 10.207 10.612 11.947v14.053h9.286z" fill="#fff"/><path d="M27.44 42.268a3 3 0 0 1-2.13-.888 3.04 3.04 0 0 1-.883-2.14v-4.76h-1.292a1.3 1.3 0 0 1-.887-.395 1.302 1.302 0 0 1 .887-2.202h1.992l-1.541-4.019c-5.776-2.38-9.492-7.397-9.492-12.856C14.094 7.135 21.626.73 30.883.73s16.79 6.405 16.79 14.28c0 5.457-3.714 10.474-9.493 12.854l-1.54 4.02h1.993c.342 0 .67.136.913.38a1.3 1.3 0 0 1 0 1.836c-.242.244-.57.38-.913.38H37.34v4.76a3.04 3.04 0 0 1-.884 2.14 3 3 0 0 1-2.13.887zm-.43-3.029c0 .24.192.433.43.433h6.887a.43.43 0 0 0 .43-.433v-4.76h-7.749zm6.86-7.356 1.168-3.043a19.4 19.4 0 0 1-4.155.447c-1.405 0-2.799-.148-4.155-.447l1.168 3.043zM30.883 3.326c-3.5 0-6.456 5.35-6.456 11.682 0 6.334 2.955 11.683 6.456 11.683s6.458-5.35 6.458-11.683-2.957-11.682-6.458-11.682m-6.106 1.142c-4.86 1.918-8.1 6.023-8.1 10.54 0 4.518 3.24 8.623 8.1 10.54-1.843-2.673-2.934-6.502-2.934-10.54s1.091-7.866 2.934-10.54m12.212 0c1.844 2.674 2.934 6.503 2.934 10.54 0 4.04-1.092 7.867-2.934 10.54 4.862-1.917 8.1-6.022 8.1-10.54s-3.238-8.622-8.1-10.54" fill="#2A2D32"/></g><defs><clipPath id="a"><path fill="#fff" d="M0 .73h65v48H0z"/></clipPath></defs></svg>